<svg xmlns="http://www.w3.org/2000/svg" xmlns:svg="http://www.w3.org/2000/svg" xmlns:xlink="http://www.w3.org/1999/xlink" width="24" height="24" version="1.1"><defs id="defs6"><linearGradient id="gradient1"><stop style="stop-color:#000;stop-opacity:.43529412" offset="0"/><stop style="stop-color:#000;stop-opacity:0" offset="1"/></linearGradient><linearGradient id="gradient2"><stop style="stop-color:#414549" offset="0"/><stop style="stop-color:#35322d" offset="1"/></linearGradient><linearGradient id="gradient3" x1="15" x2="15" y1="37" y2="40" gradientUnits="userSpaceOnUse"><stop style="stop-color:#20190e;stop-opacity:.87450981" offset="0"/><stop style="stop-color:#c7d2df;stop-opacity:.49803922" offset="1"/></linearGradient><linearGradient id="gradient4" x1="16" x2="16" y1="5" y2="44" gradientUnits="userSpaceOnUse"><stop style="stop-color:#9da5ad" offset="0"/><stop style="stop-color:#877d6f" offset=".64"/><stop style="stop-color:#6f6557" offset=".67"/><stop style="stop-color:#61594d" offset="1"/></linearGradient><linearGradient id="gradient5" x1="8" x2="25" y1="2" y2="28" gradientUnits="userSpaceOnUse"><stop style="stop-color:#ccd3da" offset="0"/><stop style="stop-color:#c2bbb0" offset="1"/></linearGradient><linearGradient id="gradient6" x1="9" x2="24" y1="2" y2="28" gradientUnits="userSpaceOnUse"><stop style="stop-color:#fff;stop-opacity:.7019608" offset="0"/><stop style="stop-color:#fff;stop-opacity:.49803922" offset="1"/></linearGradient><linearGradient id="gradient7" x1="16" x2="16" y1="5" y2="44" gradientUnits="userSpaceOnUse"><stop style="stop-color:#fff;stop-opacity:.30980393" offset="0"/><stop style="stop-color:#fff;stop-opacity:.18431373" offset=".82"/><stop style="stop-color:#fff;stop-opacity:.05882353" offset=".92"/><stop style="stop-color:#fff;stop-opacity:.18431373" offset="1"/></linearGradient><linearGradient id="gradient10" x1="24" x2="24" y1="43" y2="48" gradientTransform="matrix(0.42080861,0,0,0.60000001,1.6313949,-4.8)" gradientUnits="userSpaceOnUse" xlink:href="#gradient1"/><radialGradient id="gradient11" cx="8" cy="43" r="5" fx="8" fy="43" gradientTransform="matrix(0.59841394,0,0,0.60000001,0.21055233,-4.8)" gradientUnits="userSpaceOnUse" xlink:href="#gradient1"/><radialGradient id="gradient12" cx="39" cy="43" r="5" fx="39" fy="43" gradientTransform="matrix(0.59286377,0,0,0.60000001,-5.0787564,-4.8)" gradientUnits="userSpaceOnUse" xlink:href="#gradient1"/><linearGradient id="linearGradient3083" x1="2" x2="11" y1="1" y2="15" gradientUnits="userSpaceOnUse" xlink:href="#gradient2"/><linearGradient id="linearGradient3085" x1="3" x2="11" y1="2" y2="14" gradientUnits="userSpaceOnUse" xlink:href="#gradient5"/><linearGradient id="linearGradient3089" x1="16" x2="16" y1="5" y2="44" gradientTransform="matrix(0.5,0,0,0.45288712,-1.2157275,0.47714674)" gradientUnits="userSpaceOnUse" xlink:href="#gradient4"/><linearGradient id="linearGradient3091" x1="14" x2="14" y1="4" y2="45" gradientTransform="matrix(0.5,0,0,0.45288712,-1.2157275,0.47714674)" gradientUnits="userSpaceOnUse" xlink:href="#gradient2"/><linearGradient id="linearGradient3093" x1="16" x2="16" y1="5" y2="44" gradientTransform="matrix(0.5,0,0,0.45288712,-1.2157275,0.47714674)" gradientUnits="userSpaceOnUse" xlink:href="#gradient7"/></defs><path id="path56" d="M 2.0057941,18 L 2.0057941,24 L 4.9978637,24 L 4.9978637,18 z" style="fill:url(#gradient11)"/><path id="path58" d="M 4.9978637,21 L 4.9978637,24 L 18.042931,24 L 18.042931,21 z" style="fill:url(#gradient10)"/><path id="path60" d="M 18.042931,18 L 18.042931,24 L 21.00725,24 L 21.00725,18 z" style="fill:url(#gradient12)"/><use id="use3240" width="22" height="22" x="0" y="0" transform="matrix(-1,0,0,1,23,0)" xlink:href="#g3233"/><use id="use4429" width="22" height="22" x="0" y="0" transform="translate(6.9998947,0)" xlink:href="#path4427"/><g id="g3233" transform="matrix(1,0,0,0.99300137,0.9657275,1.013622)"><path id="path63" d="M 10.534272,2.5151387 L 10.534272,17.347191 C 10.208002,17.486017 10.169866,18.344567 10.534272,19.029872 L 10.534272,19.951293 C 10.534272,20.40418 10.284273,20.630624 9.7842726,20.630624 L 4.2842725,20.630624 C 3.7842726,20.630624 3.5409842,20.40413 3.5342725,19.951293 L 3.5215606,19.093626 C 4.4669295,18.759803 4.302433,17.366332 3.5342725,17.146226 L 3.5342725,14.06376 L 5.4469092,3.1944693 C 5.5463505,2.6293558 5.8219092,2.5151387 6.3219092,2.5151387 z" style="fill:url(#linearGradient3089);stroke:url(#linearGradient3091);stroke-width:1.00351775;stroke-linejoin:round;stroke-opacity:1"/><path id="path65" d="M 4.0342725,17.106097 C 4.4979927,17.44178 4.6601135,17.768141 4.6601135,18.095041 L 9.7825909,18.113145 C 9.7825909,17.456815 9.9224614,17.357342 10.034273,17.105955 z" style="fill:#000;fill-opacity:.18431373"/><path id="path67" d="M 4.5342725,17.106097 L 4.5427471,14.012913 L 5.781574,7.0360066 M 9.5098471,7.030678 L 9.5342725,17.106097 M 9.0342725,19.623717 L 10.034273,19.623717 M 5.0342725,19.623717 L 4.0342725,19.623717" style="fill:none;stroke:url(#linearGradient3093);stroke-width:1.00351775;stroke-opacity:1"/><path id="path69" d="M 4.1421362,13.436597 C 3.9944191,13.950882 4.0519386,14.353021 4.0342725,15.092001 L 10.030035,15.051039 L 10.030035,14.116665 L 5.1931708,14.116665 C 4.6931708,14.116665 4.3073905,14.108477 4.1421362,13.436597 z" style="fill:#fff;fill-opacity:.37254902"/><path id="path3229" d="M 4.0342725,19.120193 C 4.5069813,18.884082 4.6668206,18.576213 4.6601135,18.131249 L 9.7825909,18.113145 C 9.7825909,18.488668 9.9224614,18.868948 10.034273,19.120335 z" style="fill:#fff;fill-opacity:.18431373"/></g><path id="path4427" d="M 4.9811401,16 L 4.9811401,18 C 5.384106,16.594038 6.7008143,16 7.99057,16 C 9.2803257,16 10.590516,16.543076 11,17.40625 L 11,16 z" style="fill:#2f2e30;fill-opacity:.49803922;stroke:none"/><use id="use3106" width="22" height="22" x="0" y="0" transform="translate(7,0)" xlink:href="#g4431"/><g id="g4431" transform="translate(1,1)"><path id="path83" d="M 3.0033642,1.0213415 C 1.2165685,1.0213415 0.03595458,1.5025232 0.03595458,2.6831371 C 0.03595458,4.2476765 0.51085065,4.7763877 1.4853869,4.7763877 C 2.3760114,4.7763877 2.9590223,5.0181605 2.9781596,6.0179773 L 3.0290071,8.6744755 C 3.0457522,9.5493151 4.3467609,8.0474543 5.5616581,10.854248 C 7.3048263,14.881514 8.3993029,15.529039 11.38469,15.58297 C 13.422578,15.619784 14.02206,14.03937 14.02206,13.135593 C 14.02206,12.228283 13.904718,11.191332 12.63983,11.191332 C 11.436441,11.191332 11.794492,11.957627 11.09322,11.957627 C 10.46822,11.957627 9.9922598,10.558096 9.6800848,9.565678 C 9.2761108,8.2814255 10.071627,9.0359546 10.071909,8.5359546 L 10.073591,5.5547729 C 10.073732,5.304773 9.75,5.125 7.75,5 C 6.375,2 4.4272498,1.0213415 3.0033642,1.0213415 z" style="fill:url(#linearGradient3083);fill-opacity:1"/><path id="path85" d="M 3,2 C 1.5179773,2 0.94606812,2.2709998 0.94606812,2.96875 C 0.94606812,3.21875 0.93749999,4 1.4375,4 C 2.4375,4 1.6061816,2.96875 3,2.96875 C 3.75,2.96875 4.6166027,3.1804431 5.34375,6.03125 L 3.53125,6.03125 L 3.5,7 L 5.75,6.9375 C 7.0096436,9.8473155 8.0603654,14.121303 11.375,14.03125 C 12.9643,13.988071 13.09375,13.676032 13.09375,13.122101 C 13.09375,12.638396 13.09375,12.364374 12.59375,12.364374 C 10.847618,12.364374 12.28125,13.076614 11.03125,13.076614 C 9.6289602,13.076614 8.8131519,9.8184881 7.71875,7.0625 L 9.46875,7 L 9.46875,6.0625 L 7.28125,6.03125 C 6.450962,4.1938371 5.1396131,2 3,2 z M 3.0419996,4.4764771 L 3.5625,5.34375 L 4.13011,5.2867956 C 3.9360724,4.346887 3.6861747,3.8957157 3.0419996,4.4764771 z" style="fill:url(#linearGradient3085);fill-opacity:1"/><path id="path3216" d="M 3,2 C 1.5179773,2 0.94606812,2.2709998 0.94606812,2.96875 C 0.94606812,3.21875 0.93749999,4 1.4375,4 C 2.4375,4 1.6061816,2.96875 3,2.96875 C 3.75,2.96875 4.6166027,3.1804431 5.34375,6.03125 L 3.53125,6.03125 L 3.5,7 L 5.75,6.9375 C 7.0096436,9.8473155 8.0603654,14.121303 11.375,14.03125 C 12.9643,13.988071 13.09375,13.676032 13.09375,13.122101 C 13.09375,12.638396 13.09375,12.364374 12.59375,12.364374 C 10.847618,12.364374 12.28125,13.076614 11.03125,13.076614 C 9.6289602,13.076614 8.8131519,9.8184881 7.71875,7.0625 L 9.46875,7 L 9.46875,6.0625 L 7.28125,6.03125 C 6.450962,4.1938371 5.1396131,2 3,2 z M 3.0419996,4.4764771 L 3.5625,5.34375 L 4.13011,5.2867956 C 3.9360724,4.346887 3.6861747,3.8957157 3.0419996,4.4764771 z" style="fill:#fff;fill-opacity:.49803922;stroke:none"/></g></svg>