<svg xmlns="http://www.w3.org/2000/svg" width="870" height="720" version="1.1" viewBox="0 0 870 720" xml:space="preserve"><g><path fill="none" stroke="green" stroke-width="1.5" d="m149.25 135h-90v-90h90zm360-45c0-24.836 20.164-45 45-45s45 20.164 45 45-20.164 45-45 45-45-20.164-45-45zm-365.016 184.602-67.656 24.625-12.312-33.829 67.656-24.625zm376.188 7.71c-3.399-9.335 9-22.429 27.672-29.226s36.586-4.734 39.984 4.602c3.399 9.335-9 22.433-27.672 29.226-18.672 6.797-36.586 4.734-39.984-4.602zm-327.078 104.047-152.735 152.735-25.453-25.453 152.735-152.735zm284.539 140.008c-7.024-7.023 21.492-46.945 63.64-89.094 42.149-42.148 82.071-70.664 89.094-63.64 7.024 7.023-21.492 46.945-63.64 89.094-42.149 42.148-82.071 70.664-89.094 63.64z" transform="matrix(1.3333333,0,0,1.3333333,0,1.8e-5)"/><text fill="#000" font-family="'DejaVu Sans'" font-size="15" transform="matrix(1.3333333,0,0,1.3333333,0,1.8e-5) translate(59.982422,22.5)"><tspan x="0 10.47 19.65 23.805 27.96 32.115 41.625 47.79 56.97 66.48 75.975 80.13 462.686 472.151 476.306 480.461 484.616 494.126 500.006 504.161 512.396 521.576" y="0">CalligraphicElliptical</tspan> <tspan x="149.385 163.875 168.03 177.54 183.42 192.915 197.955 202.71 212.295 221.835 226.59 231.345 242.61 251.835 255.99 265.5 274.995 280.875 285.96 290.715 300.255 309.795 314.55 319.35 329.61 339.105 348.615 352.77 361.995 367.035 371.79 381.33" y="75">Width: 50, Height: 50, Angle: 0°</tspan> <tspan x="144.609 159.099 163.254 172.764 178.644 188.139 193.179 197.934 207.519 217.059 221.814 226.569 237.834 247.059 251.214 260.724 270.219 276.099 281.184 285.939 295.479 305.019 309.774 314.574 324.834 334.329 343.839 347.994 357.219 362.259 367.014 376.554 386.094" y="251.25">Width: 40, Height: 20, Angle: 25°</tspan> <tspan x="139.834 154.324 158.479 167.989 173.869 183.364 193.204 202.744 212.284 221.824 231.394 242.659 251.884 256.039 265.549 275.044 280.924 290.764 300.304 309.844 319.399 329.659 339.154 348.664 352.819 362.044 371.869 381.409 390.949" y="427.5">Width:120,Height:20,Angle:45°</tspan></text></g></svg>