<svg xmlns="http://www.w3.org/2000/svg" xmlns:svg="http://www.w3.org/2000/svg" id="svg2" width="1024" height="1024" version="1.1"><title id="title3081">two</title><metadata id="metadata7"/><g id="layer1" transform="translate(0,-28.362183)"><path style="fill:#000;fill-opacity:1;fill-rule:nonzero;stroke:none" id="rect4054" d="M 128,256 C 57.088,256 0,313.088 0,384 l 0,256 c 0,70.912 57.088,128 128,128 l 640,0 c 70.912,0 128,-57.088 128,-128 l 64,0 c 35.456,0 64,-28.544 64,-64 l 0,-128 c 0,-35.456 -28.544,-64 -64,-64 l -64,0 C 896,313.088 838.912,256 768,256 z m 128,128 448,0 c 35.456,0 64,28.544 64,64 l 0,128 c 0,35.456 -28.544,64 -64,64 l -448,0 z" transform="translate(0,28.362183)"/></g></svg>