<svg xmlns="http://www.w3.org/2000/svg" xmlns:svg="http://www.w3.org/2000/svg" id="svg2" width="1024" height="1024" version="1.1"><title id="title3083">one</title><metadata id="metadata7"/><g id="layer1" transform="translate(0,-28.362183)"><path style="fill:#000;fill-opacity:1;fill-rule:nonzero;stroke:none" id="rect4054" d="M 128 256 C 57.088 256 0 313.088 0 384 L 0 640 C 0 710.912 57.088 768 128 768 L 768 768 C 838.912 768 896 710.912 896 640 L 960 640 C 995.456 640 1024 611.456 1024 576 L 1024 448 C 1024 412.544 995.456 384 960 384 L 896 384 C 896 313.088 838.912 256 768 256 L 128 256 z M 192 384 L 704 384 C 739.456 384 768 412.544 768 448 L 768 576 C 768 611.456 739.456 640 704 640 L 192 640 L 192 384 z" transform="translate(0,28.362183)"/></g></svg>