<svg xmlns="http://www.w3.org/2000/svg" xmlns:svg="http://www.w3.org/2000/svg" id="svg2" width="1024" height="1024" version="1.1"><title id="title3065">g</title><metadata id="metadata7"/><g id="layer1" transform="translate(0,-28.362183)"><path id="rect3913" d="m 128,284.36218 c -70.912,0 -128,57.088 -128,128 l 0,256 c 0,70.912 57.088,128 128,128 l 640,0 c 70.912,0 128,-57.088 128,-128 l 64,0 c 35.456,0 64,-28.544 64,-64 l 0,-128 c 0,-35.456 -28.544,-64 -64,-64 l -64,0 c 0,-70.912 -57.088,-128 -128,-128 l -640,0 z m 384,64 64,0 0,64 160,0 c 17.728,0 32,14.272 32,32 0,17.728 -14.272,32 -32,32 l -160,0 0,128 160,0 c 17.728,0 32,14.272 32,32 0,17.728 -14.272,32 -32,32 l -160,0 0,64 -64,0 c -35.456,0 -64,-28.544 -64,-64 l 0,-64 -320,0 0,-128 320,0 0,-64 c 0,-35.456 28.544,-64 64,-64 z" style="fill:#000;fill-opacity:1;fill-rule:nonzero;stroke:none"/></g></svg>