<svg xmlns="http://www.w3.org/2000/svg" xmlns:svg="http://www.w3.org/2000/svg" id="svg2" width="1024" height="1024" version="1.1"><title id="title3064">k</title><metadata id="metadata7"/><g id="layer1" transform="translate(0,-28.362183)"><path id="path3547-4" d="m 768,540.36218 c 0,141.3849 -114.6151,256 -256,256 -141.3849,0 -256,-114.6151 -256,-256 0,-141.3849 114.6151,-256 256,-256 141.3849,0 256,114.6151 256,256 z m -96,0 c 0,-88.36556 -71.63444,-160 -160,-160 -88.36556,0 -160,71.63444 -160,160 0,88.36556 71.63444,160 160,160 88.36556,0 160,-71.63444 160,-160 z" style="fill:#000;fill-opacity:1;fill-rule:nonzero;stroke:none"/><path style="color:#000;fill:#000;fill-opacity:1;fill-rule:nonzero;stroke:none;stroke-width:1px;marker:none;visibility:visible;display:inline;overflow:visible;enable-background:accumulate" id="path3549" d="M 448,28.362183 512,284.36218 576,28.362183 z"/><path style="color:#000;fill:#000;fill-opacity:1;fill-rule:nonzero;stroke:none;stroke-width:1px;marker:none;visibility:visible;display:inline;overflow:visible;enable-background:accumulate" id="path3549-9" d="m 448,1052.3622 64,-256.00002 64,256.00002 z"/><path style="color:#000;fill:#000;fill-opacity:1;fill-rule:nonzero;stroke:none;stroke-width:1px;marker:none;visibility:visible;display:inline;overflow:visible;enable-background:accumulate" id="path3549-9-3" d="m 0,476.36218 256.00002,64 -256.00002,64 z"/><path style="color:#000;fill:#000;fill-opacity:1;fill-rule:nonzero;stroke:none;stroke-width:1px;marker:none;visibility:visible;display:inline;overflow:visible;enable-background:accumulate" id="path3549-9-3-1" d="m 1024,476.36218 -256.00002,64 256.00002,64 z"/><path style="color:#000;fill:#000;fill-opacity:1;fill-rule:nonzero;stroke:none;stroke-width:1px;marker:none;visibility:visible;display:inline;overflow:visible;enable-background:accumulate" id="path3549-7" d="M 104.70649,223.57835 330.98066,359.34285 195.21616,133.06868 z"/><path style="color:#000;fill:#000;fill-opacity:1;fill-rule:nonzero;stroke:none;stroke-width:1px;marker:none;visibility:visible;display:inline;overflow:visible;enable-background:accumulate" id="path3549-9-8" d="M 828.78384,947.65571 693.01933,721.38153 919.29351,857.14604 z"/><path style="color:#000;fill:#000;fill-opacity:1;fill-rule:nonzero;stroke:none;stroke-width:1px;marker:none;visibility:visible;display:inline;overflow:visible;enable-background:accumulate" id="path3549-9-3-7" d="M 104.70649,857.14603 330.98067,721.38151 195.21616,947.6557 z"/><path style="color:#000;fill:#000;fill-opacity:1;fill-rule:nonzero;stroke:none;stroke-width:1px;marker:none;visibility:visible;display:inline;overflow:visible;enable-background:accumulate" id="path3549-9-3-1-3" d="M 828.78383,133.06868 693.01931,359.34287 919.2935,223.57835 z"/></g></svg>