<svg xmlns="http://www.w3.org/2000/svg" xmlns:svg="http://www.w3.org/2000/svg" id="svg2" width="1024" height="1024" version="1.1"><title id="title3062">j</title><metadata id="metadata7"/><g id="layer1" transform="translate(0,-28.362183)"><path id="path3547-4" d="m 608,540.36218 c 0,-53.01934 -42.98066,-96 -96,-96 -53.01934,0 -96,42.98066 -96,96 0,53.01934 42.98066,96 96,96 53.01934,0 96,-42.98066 96,-96 z m 96,0 c 0,106.03867 -85.96133,192 -192,192 -106.03868,0 -192,-85.96133 -192,-192 0,-106.03868 85.96132,-192 192,-192 106.03867,0 192,85.96132 192,192 z" style="fill:#000;fill-opacity:1;fill-rule:nonzero;stroke:none"/><path style="fill:#000;fill-opacity:1;fill-rule:nonzero;stroke:none" id="path3698" d="m 576,220.36218 c 0,35.34622 -28.65378,64 -64,64 -35.34622,0 -64,-28.65378 -64,-64 0,-35.34622 28.65378,-64 64,-64 35.34622,0 64,28.65378 64,64 z"/><path style="fill:#000;fill-opacity:1;fill-rule:nonzero;stroke:none" id="path3698-4" d="m 576,860.36218 c 0,35.34622 -28.65378,64 -64,64 -35.34622,0 -64,-28.65378 -64,-64 0,-35.34622 28.65378,-64 64,-64 35.34622,0 64,28.65378 64,64 z"/><path style="fill:#000;fill-opacity:1;fill-rule:nonzero;stroke:none" id="path3698-4-3" d="m 256,540.36218 c 0,35.34622 -28.65378,64 -64,64 -35.34622,0 -64,-28.65378 -64,-64 0,-35.34622 28.65378,-64 64,-64 35.34622,0 64,28.65378 64,64 z"/><path style="fill:#000;fill-opacity:1;fill-rule:nonzero;stroke:none" id="path3698-4-3-5" d="m 896,540.36218 c 0,35.34622 -28.65378,64 -64,64 -35.34622,0 -64,-28.65378 -64,-64 0,-35.34622 28.65378,-64 64,-64 35.34622,0 64,28.65378 64,64 z"/><path style="fill:#000;fill-opacity:1;fill-rule:nonzero;stroke:none" id="path3698-0" d="m 330.98067,268.83318 c 24.99355,24.99355 24.99355,65.51611 0,90.50966 -24.99355,24.99356 -65.51612,24.99356 -90.50967,0 -24.99355,-24.99355 -24.99355,-65.51611 0,-90.50966 24.99355,-24.99356 65.51612,-24.99356 90.50967,0 z"/><path style="fill:#000;fill-opacity:1;fill-rule:nonzero;stroke:none" id="path3698-4-5" d="m 783.52901,721.38152 c 24.99355,24.99355 24.99355,65.51611 0,90.50966 -24.99356,24.99356 -65.51612,24.99356 -90.50967,0 -24.99355,-24.99355 -24.99355,-65.51611 0,-90.50966 24.99355,-24.99356 65.51611,-24.99356 90.50967,0 z"/><path style="fill:#000;fill-opacity:1;fill-rule:nonzero;stroke:none" id="path3698-4-3-51" d="m 330.98067,721.38152 c 24.99355,24.99355 24.99355,65.51611 0,90.50966 -24.99355,24.99356 -65.51612,24.99356 -90.50967,0 -24.99355,-24.99355 -24.99355,-65.51611 0,-90.50966 24.99355,-24.99356 65.51612,-24.99356 90.50967,0 z"/><path style="fill:#000;fill-opacity:1;fill-rule:nonzero;stroke:none" id="path3698-4-3-5-2" d="m 783.52901,268.83318 c 24.99355,24.99355 24.99355,65.51611 0,90.50966 -24.99356,24.99356 -65.51612,24.99356 -90.50967,0 -24.99355,-24.99355 -24.99355,-65.51611 0,-90.50966 24.99355,-24.99356 65.51611,-24.99356 90.50967,0 z"/></g></svg>