<svg xmlns="http://www.w3.org/2000/svg" xmlns:svg="http://www.w3.org/2000/svg" id="svg2" width="1024" height="1024" version="1.1"><title id="title3052">at</title><metadata id="metadata7"/><g id="layer1" transform="translate(0,-28.362183)"><path style="fill:#000;fill-opacity:1;fill-rule:nonzero;stroke:none" id="path2983" d="M 512 0 C 229.23021 1.5158245e-13 0 229.23021 0 512 C 0 794.76979 229.23021 1024 512 1024 C 794.76979 1024 1024 794.76979 1024 512 C 1024 229.23021 794.76979 -7.5791225e-14 512 0 z M 512 96 C 741.75046 96 928 282.24954 928 512 C 928 741.75046 741.75046 928 512 928 C 282.24954 928 96 741.75046 96 512 C 96 282.24954 282.24954 96 512 96 z M 512 208 C 485.408 208 464 229.408 464 256 L 464 512 C 464 538.592 485.408 560 512 560 L 768 560 C 794.592 560 816 538.592 816 512 C 816 485.408 794.592 464 768 464 L 560 464 L 560 256 C 560 229.408 538.592 208 512 208 z" transform="translate(0,28.362183)"/></g></svg>