<svg xmlns="http://www.w3.org/2000/svg" xmlns:svg="http://www.w3.org/2000/svg" id="svg2" width="1024" height="1024" version="1.1"><title id="title3058">t</title><metadata id="metadata7"/><g id="layer1" transform="translate(0,-28.362183)"><path id="rect3010" d="m 704,796.36218 0,64 128,0 0,-64 -128,0 z m -512,0 0,64 128,0 0,-64 -128,0 z m 448,-128 320,0 0,320 -320,0 0,-320 z m -64,-64 0,64 0,320 0,64.00002 320,0 128,0 0,-128.00002 0,-320 -64,0 -384,0 z m -384,-64 0,64 128,0 0,-64 -128,0 z m 512,-256 0,64 128,0 0,-64 -128,0 z m -512,0 0,64 128,0 0,-64 -128,0 z m 448,-128 320,0 0,320 -320,0 0,-320 z m -576,0 384,0 0,832 -384,0 0,-832 z M 128,28.362183 c -70.912,0 -128,57.088006 -128,127.999997 l 0,384 0,384 0,128.00002 128,0 384,0 0,-64.00002 0,-832 64,0 0,320 0,64 64,0 320,0 64,0 0,-384 C 1024,85.450189 966.912,28.362183 896,28.362183 l -768,0 z" style="fill:#000;fill-opacity:1;fill-rule:nonzero;stroke:none"/></g></svg>