<svg xmlns="http://www.w3.org/2000/svg" xmlns:svg="http://www.w3.org/2000/svg" id="svg2" width="1024" height="1024" version="1.1"><title id="title3009">u</title><metadata id="metadata7"/><g id="layer1" transform="translate(0,-28.362183)"><path style="fill:#000;fill-opacity:1;fill-rule:nonzero;stroke:none" id="path3030" d="M 512 0 C 325.47787 -4.9993815e-14 150.62066 49.866741 0 137 L 64 247.875 C 195.78742 171.63724 348.80365 128 512 128 C 675.19634 128 828.21257 171.63724 960 247.875 L 1024 137 C 873.37934 49.866741 698.52214 0 512 0 z M 512 256 C 372.10611 256 240.96375 293.39907 128 358.75 L 192 469.625 C 286.13775 415.16634 395.41927 384 512 384 C 628.58073 384 737.86225 415.16634 832 469.625 L 896 358.75 C 783.03625 293.39907 651.89389 256 512 256 z M 512 512 C 418.74052 512 331.30946 536.93475 256 580.5 L 320 691.375 C 376.48283 658.6999 442.05405 640 512 640 C 581.94595 640 647.51717 658.6999 704 691.375 L 768 580.5 C 692.69054 536.93475 605.25948 512 512 512 z M 512 768 C 465.37243 768 421.65354 780.46925 384 802.25 L 512 1024 L 640 802.25 C 602.34646 780.46925 558.62757 768 512 768 z" transform="translate(0,28.362183)"/></g></svg>