<svg xmlns="http://www.w3.org/2000/svg" xmlns:svg="http://www.w3.org/2000/svg" id="svg2" width="1024" height="1024" version="1.1"><title id="title3133">d</title><metadata id="metadata7"/><g id="layer1" transform="translate(0,-28.362183)"><path id="path3030-1" d="M 906.25,174.65625 864,247.875 800,358.75 736,469.625 672,580.5 608,691.375 544,802.25 512,857.6875 480,802.25 416,691.375 352,580.5 288,469.625 224,358.75 160,247.875 117.75,174.65625 C 239.09703,123.98789 372.2771,96 512,96 c 139.7229,0 272.90297,27.98789 394.25,78.65625 z M 512,0 C 325.47787,0 150.62066,49.866741 0,137 L 64,247.875 128,358.75 192,469.625 256,580.5 320,691.375 384,802.25 512,1024 640,802.25 704,691.375 768,580.5 832,469.625 896,358.75 960,247.875 1024,137 C 873.37934,49.866741 698.52214,0 512,0 z" transform="translate(0,28.362183)" style="fill:#000;fill-opacity:1;fill-rule:nonzero;stroke:none"/></g></svg>