<svg xmlns="http://www.w3.org/2000/svg" xmlns:svg="http://www.w3.org/2000/svg" id="svg2" width="1024" height="1024" version="1.1"><title id="title3011">U</title><metadata id="metadata7"/><g id="layer1" transform="translate(0,-28.362183)"><path style="fill:#000;fill-opacity:1;fill-rule:nonzero;stroke:none" id="path5136" d="M 512 0 C 321.63245 0 145.13059 59.393284 0 160.625 L 65.5 271.09375 C 191.32323 181.02895 345.46068 128 512 128 C 678.53932 128 832.67677 181.02895 958.5 271.09375 L 1024 160.625 C 878.86941 59.393284 702.36757 0 512 0 z M 512 256 C 369.30304 256 237.52259 302.70836 131.09375 381.65625 L 196.8125 492.5 C 283.71279 424.52015 393.1167 384 512 384 C 630.8833 384 740.28721 424.52015 827.1875 492.5 L 892.90625 381.65625 C 786.47741 302.70836 654.69696 256 512 256 z M 512 512 C 416.91074 512 329.87926 546.56454 262.8125 603.8125 L 329.59375 716.40625 C 376.02699 669.25051 440.59228 640 512 640 C 583.40772 640 647.97301 669.25051 694.40625 716.40625 L 761.1875 603.8125 C 694.12074 546.56454 607.08926 512 512 512 z M 512 768 C 441.30755 768 384 825.30755 384 896 C 384 966.69245 441.30755 1024 512 1024 C 582.69245 1024 640 966.69245 640 896 C 640 825.30755 582.69245 768 512 768 z" transform="translate(0,28.362183)"/></g></svg>