<svg xmlns="http://www.w3.org/2000/svg" xmlns:svg="http://www.w3.org/2000/svg" id="svg2" width="1024" height="1024" version="1.1"><title id="title3017">B</title><metadata id="metadata7"/><g id="layer1" transform="translate(0,-28.362183)"><path style="color:#000;fill:#000;fill-opacity:1;fill-rule:nonzero;stroke:none;stroke-width:1px;marker:none;visibility:visible;display:inline;overflow:visible;enable-background:accumulate" id="path2983" d="m 0,384 0,256 192,0 256,256 0,-768 -256,256 z" transform="translate(0,28.362183)"/><path style="fill:#000;fill-opacity:1;fill-rule:nonzero;stroke:none" id="path3070" d="m 685.625,238.73718 -68.5,68.5 C 689.15833,359.58711 736,444.50296 736,540.36218 c 0,95.85922 -46.84167,180.77507 -118.875,233.125 l 68.5,68.5 C 774.759,771.66715 832,662.70726 832,540.36218 832,418.0171 774.759,309.05721 685.625,238.73718 z"/><path style="fill:#000;fill-opacity:1;fill-rule:nonzero;stroke:none" id="path3028" d="M 547.96875,376.39343 475.875,448.48718 c 39.42787,11.94215 68.125,48.54812 68.125,91.875 0,43.32688 -28.69713,79.93285 -68.125,91.875 l 72.09375,72.09375 C 603.16406,670.60604 640,609.78 640,540.36218 640,470.94436 603.16406,410.11832 547.96875,376.39343 z"/></g></svg>