<svg xmlns="http://www.w3.org/2000/svg" xmlns:svg="http://www.w3.org/2000/svg" id="svg2" width="1024" height="1024" version="1.1"><title id="title3023">b</title><metadata id="metadata7"/><g id="layer1" transform="translate(0,-28.362183)"><path style="color:#000;fill:#000;fill-opacity:1;fill-rule:nonzero;stroke:none;stroke-width:1px;marker:none;visibility:visible;display:inline;overflow:visible;enable-background:accumulate" id="path3006" d="m 0,412.36218 c 85.333333,0 170.66667,0 256,0 85.33333,-85.33333 170.66667,-170.66667 256,-256 0,256 0,512 0,768 -85.33333,-85.33333 -170.66667,-170.66667 -256,-256 -85.33333,0 -170.666667,0 -256,0 0,-85.33333 0,-170.66667 0,-256 z"/><path style="fill:#000;fill-opacity:1;fill-rule:nonzero;stroke:none" id="path3057" d="M 690.15625,234.20593 594.75,329.61218 c 29.0655,64.27272 45.25,135.62449 45.25,210.75 0,75.12551 -16.1845,146.47728 -45.25,210.75 l 95.40625,95.40625 C 739.78856,755.57697 768,651.26348 768,540.36218 768,429.46088 739.78856,325.14739 690.15625,234.20593 z"/></g></svg>