<svg xmlns="http://www.w3.org/2000/svg" xmlns:svg="http://www.w3.org/2000/svg" id="svg2" width="1024" height="1024" version="1.1"><title id="title3021">c</title><metadata id="metadata7"/><g id="layer1" transform="translate(0,-28.362183)"><g id="g3019"><path id="path3006" d="m 0,412.36218 c 85.333333,0 170.66667,0 256,0 85.33333,-85.33333 170.66667,-170.66667 256,-256 0,256 0,512 0,768 -85.33333,-85.33333 -170.66667,-170.66667 -256,-256 -85.33333,0 -170.666667,0 -256,0 0,-85.33333 0,-170.66667 0,-256 z" style="color:#000;fill:#000;fill-opacity:1;fill-rule:nonzero;stroke:none;stroke-width:1px;marker:none;visibility:visible;display:inline;overflow:visible;enable-background:accumulate"/><path id="path2995" d="m 876.59375,47.768433 -92.75,92.749997 C 854.99844,256.98383 896,393.89054 896,540.36218 896,686.83382 854.99844,823.74053 783.84375,940.20593 l 92.75,92.75007 C 969.78108,891.62224 1024,722.31536 1024,540.36218 1024,358.40899 969.78108,189.10212 876.59375,47.768433 z" style="fill:#000;fill-opacity:1;fill-rule:nonzero;stroke:none"/><path id="path3057" d="M 690.15625,234.20593 594.75,329.61218 c 29.0655,64.27272 45.25,135.62449 45.25,210.75 0,75.12551 -16.1845,146.47728 -45.25,210.75 l 95.40625,95.40625 C 739.78856,755.57697 768,651.26348 768,540.36218 768,429.46088 739.78856,325.14739 690.15625,234.20593 z" style="fill:#000;fill-opacity:1;fill-rule:nonzero;stroke:none"/></g></g></svg>