<svg xmlns="http://www.w3.org/2000/svg" xmlns:svg="http://www.w3.org/2000/svg" id="svg2" width="1024" height="1024" version="1.1"><title id="title3148">C</title><metadata id="metadata7"/><g id="layer1" transform="translate(0,-28.362183)"><path style="color:#000;fill:#000;fill-opacity:1;fill-rule:nonzero;stroke:none;stroke-width:1px;marker:none;visibility:visible;display:inline;overflow:visible;enable-background:accumulate" id="path2983" d="m 0,384 0,256 192,0 256,256 0,-768 -256,256 z" transform="translate(0,28.362183)"/><path style="fill:#000;fill-opacity:1;fill-rule:nonzero;stroke:none" id="path3028" d="M 822.03125 73.96875 L 753.90625 142.09375 C 860.24238 230.13678 928 363.16078 928 512 C 928 660.83922 860.24238 793.86322 753.90625 881.90625 L 822.03125 950.03125 C 945.63502 844.38529 1024 687.34757 1024 512 C 1024 336.65243 945.63502 179.61471 822.03125 73.96875 z M 685.625 210.375 L 617.125 278.875 C 689.15833 331.22493 736 416.14078 736 512 C 736 607.85922 689.15833 692.77507 617.125 745.125 L 685.625 813.625 C 774.759 743.30497 832 634.34508 832 512 C 832 389.65492 774.759 280.69503 685.625 210.375 z M 547.96875 348.03125 L 475.875 420.125 C 515.30287 432.06715 544 468.67312 544 512 C 544 555.32688 515.30287 591.93285 475.875 603.875 L 547.96875 675.96875 C 603.16406 642.24386 640 581.41782 640 512 C 640 442.58218 603.16406 381.75614 547.96875 348.03125 z" transform="translate(0,28.362183)"/></g></svg>