<svg xmlns="http://www.w3.org/2000/svg" xmlns:svg="http://www.w3.org/2000/svg" id="svg2" width="1024" height="1024" version="1.1"><title id="title2992">equal</title><metadata id="metadata7"/><g id="layer1" transform="translate(0,-28.362183)"><path style="color:#000;fill:#000;fill-opacity:1;fill-rule:nonzero;stroke:none;stroke-width:1px;marker:none;visibility:visible;display:inline;overflow:visible;enable-background:accumulate" id="path2983" d="m 0,384 192,0 256,-256 0,768 L 192,640 0,640 z" transform="translate(0,28.362183)"/><path style="fill:#000;fill-opacity:1;fill-rule:nonzero;stroke:none" id="path2988" d="m 740.46875,160.67468 -74.0625,66.875 C 711.0506,322.48622 736,428.50577 736,540.36218 c 0,111.85641 -24.9494,217.87596 -69.59375,312.8125 l 74.0625,66.875 C 798.96584,806.21782 832,677.15129 832,540.36218 832,403.57307 798.96584,274.50654 740.46875,160.67468 z"/><path style="fill:#000;fill-opacity:1;fill-rule:nonzero;stroke:none" id="path3020" d="m 591.375,295.29968 -76.5,69.09375 C 533.73529,419.58992 544,478.7776 544,540.36218 c 0,61.58458 -10.26471,120.77226 -29.125,175.96875 l 76.5,69.09375 C 622.69014,709.93972 640,627.17771 640,540.36218 640,453.54665 622.69014,370.78464 591.375,295.29968 z"/></g></svg>